:version 1.10
:name ASF
:units
  mass 1
  length 1
  angle deg
:documentation
  ASF file generated by Kaydara
:root
  axis xyz
  order  tx ty tz rx ry rz
  position 0 0 0
  orientation 0 0 0
:bonedata
  begin
    id 1
    name RightUpLegDummy
    direction -0.65628 -0.754516 0.00165102
    length 4.76918
    axis 0 0 0 xyz
  end
  begin
    id 2
    name RightUpLeg
    direction -0.145584 -0.923362 0.355256
    length 17.9961
    axis -24.7611 -13.1006 1.78531 xyz
    dof rx ry rz
  end
  begin
    id 3
    name RightLeg
    direction 0.263379 0.172355 -0.949171
    length 13.3386
    axis 89.6202 -21.1929 12.3855 xyz
    dof rx ry rz
  end
  begin
    id 4
    name RightFoot
    direction 0.224283 -0.968777 -0.105675
    length 5.86697
    axis 56.995 -39.6905 17.3365 xyz
    dof rx ry rz
  end
  begin
    id 5
    name RightToes
    direction -0.0806345 -0.9037 0.420506
    length 4.75197
    axis 146.825 -39.7828 17.6019 xyz
    dof rx ry rz
  end
  begin
    id 6
    name SpineDummy
    direction -3.39852e-014 1 9.33296e-014
    length 8.13779
    axis 0 0 0 xyz
  end
  begin
    id 7
    name Spine
    direction -0.156609 0.733703 0.661176
    length 7.14978
    axis 41.2365 5.68757 17.0844 xyz
    dof rx ry rz
  end
  begin
    id 8
    name Spine1
    direction 0 0 0
    length 0
    axis 42.8809 47.8308 -3.36039 xyz
    dof rx ry rz
  end
  begin
    id 9
    name HEadDummy
    direction 0.546431 0.701947 0.456819
    length 3.55512
    axis 42.8809 47.8308 -3.36039 xyz
  end
  begin
    id 10
    name HEad
    direction 0.23444 0.828559 0.508457
    length 7.35827
    axis 51.1864 49.2662 27.4903 xyz
    dof rx ry rz
  end
  begin
    id 11
    name LeftShoulder1Dummy
    direction 0.431183 0.475873 -0.766568
    length 2.49352
    axis 42.8809 47.8308 -3.36039 xyz
  end
  begin
    id 12
    name LeftShoulder1
    direction 0.268187 -0.383402 -0.883786
    length 4.48604
    axis -119.517 0.106469 35.1736 xyz
    dof rx ry rz
  end
  begin
    id 13
    name LeftArm
    direction 0.380567 -0.703221 -0.600541
    length 10.1142
    axis -5.41825 36.2925 7.8293 xyz
    dof rx ry rz
  end
  begin
    id 14
    name LeftForeArm
    direction 0.541071 -0.732356 -0.413396
    length 9.39839
    axis 4.65387 33.7604 7.81644 xyz
    dof rx ry rz
  end
  begin
    id 15
    name LeftHand
    direction 0.847511 -0.389379 -0.360707
    length 3.66142
    axis 7.65593 21.1436 -24.6758 xyz
    dof rx ry rz
  end
  begin
    id 16
    name RightShoulderDummy
    direction -0.692546 0.541855 0.476208
    length 2.49352
    axis 42.8809 47.8308 -3.36039 xyz
  end
  begin
    id 17
    name RightShoulder
    direction -0.870808 -0.316653 0.376065
    length 4.48602
    axis 141.571 51.133 -100.254 xyz
    dof rx ry rz
  end
  begin
    id 18
    name RightArm
    direction 0.366897 -0.87275 0.322015
    length 10.1142
    axis 92.3258 71.2036 138.917 xyz
    dof rx ry rz
  end
  begin
    id 19
    name RightForeArm
    direction 0.702487 -0.694568 0.155197
    length 9.39835
    axis 153.863 41.5092 -176.604 xyz
    dof rx ry rz
  end
  begin
    id 20
    name RightHand
    direction 0.79502 -0.601276 0.0800636
    length 3.66142
    axis 154.247 4.59222 142.9 xyz
    dof rx ry rz
  end
  begin
    id 21
    name LeftUpLegDummy
    direction 0.65628 -0.754516 0.00165102
    length 4.76919
    axis 0 0 0 xyz
  end
  begin
    id 22
    name LeftUpLeg
    direction -0.1277 -0.689368 0.713067
    length 17.9961
    axis -48.3385 -17.8675 0.791927 xyz
    dof rx ry rz
  end
  begin
    id 23
    name LeftLeg
    direction 0.109849 -0.991246 -0.0732378
    length 13.3386
    axis -2.05791 -7.30784 1.72042 xyz
    dof rx ry rz
  end
  begin
    id 24
    name LeftFoot
    direction 0.0448355 -0.272614 0.961078
    length 5.86697
    axis -18.7733 -7.89606 10.2113 xyz
    dof rx ry rz
  end
  begin
    id 25
    name LeftToes
    direction -0.18506 0.293668 0.937823
    length 4.75197
    axis 71.2267 -7.89606 10.2113 xyz
    dof rx ry rz
  end
:hierarchy
  begin
    root RightUpLegDummy SpineDummy LeftUpLegDummy
    RightUpLegDummy RightUpLeg
    RightUpLeg RightLeg
    RightLeg RightFoot
    RightFoot RightToes
    SpineDummy Spine
    Spine Spine1
    Spine1 HEadDummy LeftShoulder1Dummy RightShoulderDummy
    HEadDummy HEad
    LeftShoulder1Dummy LeftShoulder1
    LeftShoulder1 LeftArm
    LeftArm LeftForeArm
    LeftForeArm LeftHand
    RightShoulderDummy RightShoulder
    RightShoulder RightArm
    RightArm RightForeArm
    RightForeArm RightHand
    LeftUpLegDummy LeftUpLeg
    LeftUpLeg LeftLeg
    LeftLeg LeftFoot
    LeftFoot LeftToes
  end

:SAMPLES-PER-SECOND 30
:FULLY-SPECIFIED
:DEGREES
26
root  -0.056175 34.3871 5.37677 178.68 -18.5538 172.615
RightUpLeg  -0.5505 18.7915 -1.16286
RightLeg  -54.3208 -25.7394 10.1452
RightFoot  -0.618253 3.04304 -6.76108
RightToes  -1.27222e-014 -6.36111e-015 6.36111e-015
Spine  -27.0144 -12.3017 -10.6721
Spine1  12.919 -8.07292 29.1136
HEad  -25.3875 -29.6401 -12.5217
LeftShoulder1  6.36111e-015 -1.33558e-015 6.49777e-015
LeftArm  26.9306 -7.15295 -39.4143
LeftForeArm  -28.2851 -40.8599 12.8456
LeftHand  0.286382 1.34964 -2.47366
RightShoulder  -4.77083e-015 -6.36111e-015 -3.18055e-015
RightArm  47.6551 -33.1898 -16.5877
RightForeArm  -39.2015 2.93491 -21.2699
RightHand  0.717773 1.26938 -7.81908
LeftUpLeg  19.8617 16.9138 0.49159
LeftLeg  20.0368 -2.13361 1.23132
LeftFoot  -20.0612 0.818424 -6.48805
LeftToes  1.27222e-014 -5.20697e-012 1.80337e-011
27
root  -0.320346 34.4594 5.16249 178.721 -19.5728 172.235
RightUpLeg  0.353307 19.5133 -1.27374
RightLeg  -54.8915 -26.6013 11.2153
RightFoot  0.301063 2.45684 -5.80413
RightToes  -1.27222e-014 -6.36111e-015 6.36111e-015
Spine  -27.8961 -12.2574 -11.0279
Spine1  13.4834 -7.92582 29.2046
HEad  -24.0563 -31.5886 -12.0254
LeftShoulder1  6.36111e-015 -1.33558e-015 6.49777e-015
LeftArm  28.338 -9.33001 -40.1032
LeftForeArm  -39.3526 -47.9156 24.3584
LeftHand  -0.624019 -0.690594 -4.62173
RightShoulder  -4.77083e-015 -6.36111e-015 -3.18055e-015
RightArm  54.1055 -36.5221 -22.4001
RightForeArm  -50.1729 8.17412 -30.4262
RightHand  -0.216281 3.42153 -3.77159
LeftUpLeg  20.5072 17.9084 0.476905
LeftLeg  19.6886 -3.22737 0.657385
LeftFoot  -19.7014 0.784576 -6.02887
LeftToes  1.27222e-014 -5.20697e-012 1.80337e-011
28
root  -0.580553 35.2184 4.90792 179.153 -20.4102 172.198
RightUpLeg  1.24209 19.7834 -0.929694
RightLeg  -58.2926 -27.0734 13.3537
RightFoot  6.57466 2.10535 -7.60877
RightToes  -1.27222e-014 -6.36111e-015 6.36111e-015
Spine  -29.1749 -13.2186 -11.8348
Spine1  12.49 -8.66752 30.2873
HEad  -22.9745 -33.2207 -10.6073
LeftShoulder1  6.36111e-015 -1.33558e-015 6.49777e-015
LeftArm  30.318 -8.61667 -40.6803
LeftForeArm  -53.4172 -50.7569 37.2593
LeftHand  -1.27888 -2.25173 -6.52972
RightShoulder  -4.77083e-015 -6.36111e-015 -3.18055e-015
RightArm  58.9458 -39.3318 -23.6434
RightForeArm  -58.7454 11.8277 -40.6193
RightHand  -0.789053 4.5001 0.112376
LeftUpLeg  22.3442 18.8513 1.11336
LeftLeg  15.4488 -4.4504 -0.0839292
LeftFoot  -16.1862 0.863543 -5.36693
LeftToes  1.27222e-014 -5.20697e-012 1.80337e-011
29
root  -0.841389 36.5387 4.63842 -179.964 -20.784 172.765
RightUpLeg  1.34612 18.3564 -0.177602
RightLeg  -65.7756 -27.7694 18.6319
RightFoot  17.5122 4.07837 -14.1947
RightToes  -1.27222e-014 -6.36111e-015 6.36111e-015
Spine  -31.2367 -14.6899 -12.4493
Spine1  10.7199 -9.9838 32.3004
HEad  -21.6415 -34.1984 -9.31079
LeftShoulder1  6.36111e-015 -1.33558e-015 6.49777e-015
LeftArm  32.1509 -7.31019 -41.987
LeftForeArm  -63.2335 -49.7461 43.4675
LeftHand  -1.47633 -2.71779 -7.33716
RightShoulder  -4.77083e-015 -6.36111e-015 -3.18055e-015
RightArm  59.745 -40.3501 -19.4256
RightForeArm  -61.5688 14.8832 -50.3398
RightHand  -1.00352 4.81753 1.96696
LeftUpLeg  24.9788 19.1992 2.26511
LeftLeg  7.98886 -6.76321 -0.966208
LeftFoot  -10.0518 0.995164 -4.65681
LeftToes  1.27222e-014 -5.20697e-012 1.80337e-011
30
root  -1.08556 38.0562 4.40661 -178.917 -20.4224 173.772
RightUpLeg  0.661267 15.39 0.72028
RightLeg  -73.2828 -26.0268 22.1464
RightFoot  26.405 8.01974 -21.2388
RightToes  -1.27222e-014 -6.36111e-015 6.36111e-015
Spine  -33.2536 -15.9761 -12.6691
Spine1  8.37286 -11.2448 34.2423
HEad  -19.8118 -35.159 -8.54245
LeftShoulder1  6.36111e-015 -1.33558e-015 6.49777e-015
LeftArm  33.4269 -6.79467 -43.976
LeftForeArm  -68.1885 -48.4845 45.2016
LeftHand  -1.64238 -3.19322 -7.60736
RightShoulder  -4.77083e-015 -6.36111e-015 -3.18055e-015
RightArm  58.8469 -40.3693 -13.9013
RightForeArm  -61.0629 18.1227 -59.3548
RightHand  -1.20638 5.19631 3.71098
LeftUpLeg  27.4421 19.323 3.89222
LeftLeg  -0.56219 -9.45568 -1.26713
LeftFoot  -1.16894 1.55436 -5.38614
LeftToes  1.27222e-014 -5.20697e-012 1.80337e-011
31
root  -1.32975 39.4397 4.27081 -178.436 -19.0715 174.888
RightUpLeg  -0.153341 12.0816 1.78274
RightLeg  -75.1899 -21.8276 17.0894
RightFoot  28.3612 8.97948 -22.6463
RightToes  -1.27222e-014 -6.36111e-015 6.36111e-015
Spine  -34.3988 -16.517 -12.3879
Spine1  5.92143 -11.9997 35.8018
HEad  -18.2237 -36.1791 -8.06395
LeftShoulder1  6.36111e-015 -1.33558e-015 6.49777e-015
LeftArm  34.2051 -6.78559 -45.7031
LeftForeArm  -72.2369 -47.9246 47.9843
LeftHand  -1.96031 -4.10171 -8.29637
RightShoulder  -4.77083e-015 -6.36111e-015 -3.18055e-015
RightArm  57.7875 -39.8942 -9.83041
RightForeArm  -60.6028 20.5395 -66.588
RightHand  -1.58212 6.19463 6.91941
LeftUpLeg  29.9135 20.3714 6.47516
LeftLeg  -8.46716 -10.2115 -0.960999
LeftFoot  9.13006 2.9195 -7.63016
LeftToes  1.27222e-014 -5.20697e-012 1.80337e-011
32
root  -1.59832 40.4458 4.22588 -178.997 -16.5544 175.861
RightUpLeg  -0.754837 10.076 3.09556
RightLeg  -73.3331 -17.0465 6.90552
RightFoot  25.3794 6.4773 -18.9955
RightToes  -1.27222e-014 -6.36111e-015 6.36111e-015
Spine  -34.3932 -16.4949 -11.797
Spine1  3.87759 -12.3898 37.0277
HEad  -17.3284 -36.4697 -7.71651
LeftShoulder1  6.36111e-015 -1.33558e-015 6.49777e-015
LeftArm  34.5951 -6.92962 -46.5333
LeftForeArm  -77.4528 -47.3405 52.8457
LeftHand  -2.22735 -4.86523 -9.13438
RightShoulder  -4.77083e-015 -6.36111e-015 -3.18055e-015
RightArm  55.6566 -38.0742 -6.56515
RightForeArm  -61.2036 20.956 -69.5841
RightHand  -1.88796 7.06006 10.1189
LeftUpLeg  33.2386 22.4203 9.9342
LeftLeg  -13.6058 -8.94472 -0.912174
LeftFoot  15.8294 4.29153 -9.55075
LeftToes  1.27222e-014 -5.20697e-012 1.80337e-011
33
root  -1.88585 41.0075 4.22608 179.758 -13.2691 176.571
RightUpLeg  -1.24417 9.72035 4.71629
RightLeg  -73.4268 -14.3062 1.21856
RightFoot  21.6987 4.68637 -15.9052
RightToes  -1.27222e-014 -6.36111e-015 6.36111e-015
Spine  -33.5184 -16.5846 -11.2815
Spine1  2.03504 -12.8231 38.0818
HEad  -16.8739 -35.3867 -7.45954
LeftShoulder1  6.36111e-015 -1.33558e-015 6.49777e-015
LeftArm  34.5704 -7.59382 -46.524
LeftForeArm  -82.7907 -46.2237 57.4085
LeftHand  -2.26351 -4.95106 -9.43619
RightShoulder  -4.77083e-015 -6.36111e-015 -3.18055e-015
RightArm  52.0346 -34.4269 -3.20406
RightForeArm  -62.3112 19.7258 -67.5942
RightHand  -1.90873 6.55628 11.0556
LeftUpLeg  36.7975 23.6051 12.1463
LeftLeg  -13.9014 -7.95974 -1.04041
LeftFoot  15.5143 4.80988 -10.7642
LeftToes  1.27222e-014 -5.20697e-012 1.80337e-011
34
root  -2.17174 41.1706 4.24438 178.713 -9.98401 176.983
RightUpLeg  -2.12024 10.0828 6.33302
RightLeg  -77.6339 -14.5645 3.21982
RightFoot  19.9074 4.70796 -15.6381
RightToes  -1.27222e-014 -6.36111e-015 6.36111e-015
Spine  -32.8605 -17.0161 -11.0113
Spine1  0.466361 -13.3216 39.5251
HEad  -16.7751 -33.1751 -6.95541
LeftShoulder1  6.36111e-015 -1.33558e-015 6.49777e-015
LeftArm  33.8651 -9.28565 -45.7938
LeftForeArm  -86.6196 -45.0696 60.1194
LeftHand  -2.01674 -4.18296 -9.06103
RightShoulder  -4.77083e-015 -6.36111e-015 -3.18055e-015
RightArm  47.8537 -29.6564 -0.255561
RightForeArm  -63.0023 18.2292 -63.342
RightHand  -1.67583 5.14888 9.54082
LeftUpLeg  39.4802 23.6198 12.0241
LeftLeg  -10.6247 -9.11753 -0.973272
LeftFoot  12.239 4.86686 -11.7427
LeftToes  1.27222e-014 -5.20697e-012 1.80337e-011
35
root  -2.45834 41.0062 4.27285 178.405 -6.8887 177.046
RightUpLeg  -3.74335 10.3216 7.44161
RightLeg  -84.6489 -14.8125 8.16873
RightFoot  20.6306 5.46564 -16.9204
RightToes  -1.27222e-014 -6.36111e-015 6.36111e-015
Spine  -33.4575 -17.5041 -10.8548
Spine1  -0.0564674 -13.6619 41.1221
HEad  -16.8243 -30.6513 -6.05888
LeftShoulder1  6.36111e-015 -1.33558e-015 6.49777e-015
LeftArm  32.336 -12.1176 -44.181
LeftForeArm  -88.6455 -44.3666 61.4186
LeftHand  -1.59239 -2.88404 -8.51567
RightShoulder  -4.77083e-015 -6.36111e-015 -3.18055e-015
RightArm  43.8304 -24.9064 1.50235
RightForeArm  -62.6176 17.4436 -59.7409
RightHand  -1.38599 3.95668 7.56727
LeftUpLeg  41.4892 23.7297 11.0335
LeftLeg  -7.95052 -11.7764 -0.990835
LeftFoot  11.5627 5.06161 -12.4056
LeftToes  1.27222e-014 -5.20697e-012 1.80337e-011
36
root  -2.77176 40.5752 4.30011 178.554 -3.77786 177.005
RightUpLeg  -5.41373 9.93738 8.25463
RightLeg  -91.635 -13.3232 9.56151
RightFoot  21.4466 5.78784 -17.525
RightToes  -1.27222e-014 -6.36111e-015 6.36111e-015
Spine  -34.8906 -17.5584 -10.3229
Spine1  0.0767954 -13.8447 42.0112
HEad  -15.9876 -28.3017 -5.55011
LeftShoulder1  6.36111e-015 -1.33558e-015 6.49777e-015
LeftArm  30.175 -15.6853 -41.5513
LeftForeArm  -89.1778 -44.2 61.9835
LeftHand  -1.31838 -2.05961 -8.2006
RightShoulder  -4.77083e-015 -6.36111e-015 -3.18055e-015
RightArm  40.0459 -20.9685 2.02344
RightForeArm  -60.9741 17.5018 -57.266
RightHand  -1.23911 3.57144 6.46528
LeftUpLeg  43.885 24.2753 10.6322
LeftLeg  -8.71389 -13.7759 -0.868699
LeftFoot  12.0844 5.04028 -12.201
LeftToes  1.27222e-014 -5.20697e-012 1.80337e-011
37
root  -3.08907 39.8206 4.30938 178.397 -1.25641 176.958
RightUpLeg  -6.06016 9.55145 8.89737
RightLeg  -97.732 -11.3732 6.74916
RightFoot  20.2178 5.386 -16.7367
RightToes  -1.27222e-014 -6.36111e-015 6.36111e-015
Spine  -35.4112 -17.9553 -10.0577
Spine1  -0.788139 -14.31 42.9131
HEad  -13.7346 -25.8525 -6.32263
LeftShoulder1  6.36111e-015 -1.33558e-015 6.49777e-015
LeftArm  27.3119 -19.6152 -38.258
LeftForeArm  -87.4193 -44.6908 59.8731
LeftHand  -1.37475 -2.28341 -7.97265
RightShoulder  -4.77083e-015 -6.36111e-015 -3.18055e-015
RightArm  36.5218 -17.509 1.77888
RightForeArm  -58.2848 17.9028 -54.6688
RightHand  -1.25275 4.1455 5.86892
LeftUpLeg  47.3902 25.3493 11.1665
LeftLeg  -11.582 -14.2167 -0.529404
LeftFoot  8.43393 3.5109 -9.32424
LeftToes  1.27222e-014 -5.20697e-012 1.80337e-011
